<?xml version="1.0" standalone="no"?>
<!DOCTYPE svg PUBLIC "-//W3C//DTD SVG 20010904//EN"
 "http://www.w3.org/TR/2001/REC-SVG-20010904/DTD/svg10.dtd">
<svg version="1.0" xmlns="http://www.w3.org/2000/svg"
 width="512.000000pt" height="512.000000pt" viewBox="0 0 512.000000 512.000000"
 preserveAspectRatio="xMidYMid meet">
<metadata>
Created by potrace 1.14, written by Peter Selinger 2001-2017
</metadata>
<g transform="translate(0.000000,512.000000) scale(0.100000,-0.100000)"
fill="#000000" stroke="none">
<path d="M1805 5114 c-234 -23 -375 -51 -540 -108 -389 -133 -724 -392 -948
-731 -495 -752 -401 -1833 241 -2765 229 -333 578 -686 923 -932 404 -289 873
-482 1346 -555 148 -23 496 -23 648 0 541 81 984 347 1292 775 82 114 203 354
249 495 323 999 -136 2225 -1151 3072 -461 385 -1004 640 -1543 726 -121 19
-422 33 -517 23z m-705 -739 c111 -21 256 -69 389 -129 546 -244 1026 -744
1229 -1281 45 -118 67 -202 101 -378 67 -346 208 -657 461 -1011 211 -296 506
-600 769 -795 49 -36 74 -60 60 -57 -13 4 -58 13 -99 21 -610 125 -1240 631
-1538 1236 -75 153 -133 325 -162 485 -58 313 -121 490 -267 753 -239 429
-569 804 -1003 1143 -41 32 -38 33 60 13z"/>
</g>
</svg>
